<mxfile host="app.diagrams.net" modified="2023-06-09T14:55:23.901Z" agent="Mozilla/5.0 (X11; Linux x86_64; rv:91.0) Gecko/20100101 Firefox/91.0" etag="vL2_VHXhXcLUFh57G8Cy" version="21.3.8" type="device">
  <diagram name="PÃ¡gina-1" id="937MpPzA7s708S9kurGz">
    <mxGraphModel dx="1562" dy="867" grid="1" gridSize="10" guides="1" tooltips="1" connect="1" arrows="1" fold="1" page="1" pageScale="1" pageWidth="827" pageHeight="1169" math="0" shadow="0">
      <root>
        <mxCell id="0" />
        <mxCell id="1" parent="0" />
        <mxCell id="4_murhOq8rehyHTH4fiv-11" value="prog = 5" style="edgeStyle=orthogonalEdgeStyle;rounded=0;orthogonalLoop=1;jettySize=auto;html=1;" parent="1" source="qVSksW2Qw324cHaHS6DK-1" target="qVSksW2Qw324cHaHS6DK-2" edge="1">
          <mxGeometry relative="1" as="geometry" />
        </mxCell>
        <mxCell id="qVSksW2Qw324cHaHS6DK-1" value="IDL" style="ellipse;whiteSpace=wrap;html=1;aspect=fixed;" parent="1" vertex="1">
          <mxGeometry x="334" y="80" width="80" height="80" as="geometry" />
        </mxCell>
        <mxCell id="qVSksW2Qw324cHaHS6DK-2" value="SRCH" style="ellipse;whiteSpace=wrap;html=1;aspect=fixed;" parent="1" vertex="1">
          <mxGeometry x="334" y="340" width="80" height="80" as="geometry" />
        </mxCell>
        <mxCell id="qVSksW2Qw324cHaHS6DK-3" value="BLK" style="ellipse;whiteSpace=wrap;html=1;aspect=fixed;" parent="1" vertex="1">
          <mxGeometry x="530" y="340" width="80" height="80" as="geometry" />
        </mxCell>
        <mxCell id="qVSksW2Qw324cHaHS6DK-4" value="RST" style="ellipse;whiteSpace=wrap;html=1;aspect=fixed;" parent="1" vertex="1">
          <mxGeometry x="530" y="80" width="80" height="80" as="geometry" />
        </mxCell>
        <mxCell id="qVSksW2Qw324cHaHS6DK-5" value="PRG1" style="ellipse;whiteSpace=wrap;html=1;aspect=fixed;" parent="1" vertex="1">
          <mxGeometry x="120" y="60" width="80" height="80" as="geometry" />
        </mxCell>
        <mxCell id="qVSksW2Qw324cHaHS6DK-8" value="found = 1" style="endArrow=classic;html=1;rounded=0;exitX=1;exitY=0;exitDx=0;exitDy=0;entryX=0;entryY=0;entryDx=0;entryDy=0;" parent="1" source="qVSksW2Qw324cHaHS6DK-2" target="qVSksW2Qw324cHaHS6DK-3" edge="1">
          <mxGeometry width="50" height="50" relative="1" as="geometry">
            <mxPoint x="580" y="340" as="sourcePoint" />
            <mxPoint x="630" y="290" as="targetPoint" />
          </mxGeometry>
        </mxCell>
        <mxCell id="qVSksW2Qw324cHaHS6DK-9" value="prog = 6" style="endArrow=classic;html=1;rounded=0;exitX=0;exitY=1;exitDx=0;exitDy=0;entryX=1;entryY=1;entryDx=0;entryDy=0;" parent="1" source="qVSksW2Qw324cHaHS6DK-3" target="qVSksW2Qw324cHaHS6DK-2" edge="1">
          <mxGeometry width="50" height="50" relative="1" as="geometry">
            <mxPoint x="580" y="340" as="sourcePoint" />
            <mxPoint x="630" y="290" as="targetPoint" />
          </mxGeometry>
        </mxCell>
        <mxCell id="qVSksW2Qw324cHaHS6DK-15" value="prog = 7" style="endArrow=classic;html=1;rounded=0;exitX=0.5;exitY=0;exitDx=0;exitDy=0;entryX=0.5;entryY=1;entryDx=0;entryDy=0;" parent="1" source="qVSksW2Qw324cHaHS6DK-3" target="qVSksW2Qw324cHaHS6DK-4" edge="1">
          <mxGeometry width="50" height="50" relative="1" as="geometry">
            <mxPoint x="342" y="198" as="sourcePoint" />
            <mxPoint x="300" y="250" as="targetPoint" />
          </mxGeometry>
        </mxCell>
        <mxCell id="qVSksW2Qw324cHaHS6DK-17" value="prog = 7" style="endArrow=classic;html=1;rounded=0;entryX=0;entryY=1;entryDx=0;entryDy=0;" parent="1" source="qVSksW2Qw324cHaHS6DK-2" target="qVSksW2Qw324cHaHS6DK-4" edge="1">
          <mxGeometry width="50" height="50" relative="1" as="geometry">
            <mxPoint x="590" y="220" as="sourcePoint" />
            <mxPoint x="538" y="158" as="targetPoint" />
          </mxGeometry>
        </mxCell>
        <mxCell id="4_murhOq8rehyHTH4fiv-1" value="PRG2" style="ellipse;whiteSpace=wrap;html=1;aspect=fixed;" parent="1" vertex="1">
          <mxGeometry x="120" y="160" width="80" height="80" as="geometry" />
        </mxCell>
        <mxCell id="4_murhOq8rehyHTH4fiv-2" value="PRG4" style="ellipse;whiteSpace=wrap;html=1;aspect=fixed;" parent="1" vertex="1">
          <mxGeometry x="120" y="360" width="80" height="80" as="geometry" />
        </mxCell>
        <mxCell id="4_murhOq8rehyHTH4fiv-3" value="PRG3" style="ellipse;whiteSpace=wrap;html=1;aspect=fixed;" parent="1" vertex="1">
          <mxGeometry x="120" y="260" width="80" height="80" as="geometry" />
        </mxCell>
        <mxCell id="4_murhOq8rehyHTH4fiv-4" value="prog = 1" style="endArrow=classic;html=1;rounded=0;entryX=1;entryY=0.5;entryDx=0;entryDy=0;exitX=0;exitY=0;exitDx=0;exitDy=0;" parent="1" source="qVSksW2Qw324cHaHS6DK-1" target="qVSksW2Qw324cHaHS6DK-5" edge="1">
          <mxGeometry width="50" height="50" relative="1" as="geometry">
            <mxPoint x="390" y="350" as="sourcePoint" />
            <mxPoint x="440" y="300" as="targetPoint" />
          </mxGeometry>
        </mxCell>
        <mxCell id="4_murhOq8rehyHTH4fiv-5" value="prog = 2" style="endArrow=classic;html=1;rounded=0;entryX=1;entryY=0.5;entryDx=0;entryDy=0;exitX=0;exitY=0.5;exitDx=0;exitDy=0;" parent="1" source="qVSksW2Qw324cHaHS6DK-1" target="4_murhOq8rehyHTH4fiv-1" edge="1">
          <mxGeometry width="50" height="50" relative="1" as="geometry">
            <mxPoint x="356" y="102" as="sourcePoint" />
            <mxPoint x="210" y="110" as="targetPoint" />
          </mxGeometry>
        </mxCell>
        <mxCell id="4_murhOq8rehyHTH4fiv-6" value="prog = 3" style="endArrow=classic;html=1;rounded=0;entryX=1;entryY=0.5;entryDx=0;entryDy=0;exitX=0;exitY=1;exitDx=0;exitDy=0;" parent="1" source="qVSksW2Qw324cHaHS6DK-1" target="4_murhOq8rehyHTH4fiv-3" edge="1">
          <mxGeometry width="50" height="50" relative="1" as="geometry">
            <mxPoint x="344" y="130" as="sourcePoint" />
            <mxPoint x="210" y="210" as="targetPoint" />
          </mxGeometry>
        </mxCell>
        <mxCell id="4_murhOq8rehyHTH4fiv-7" value="prog = 4" style="endArrow=classic;html=1;rounded=0;entryX=1;entryY=0.5;entryDx=0;entryDy=0;exitX=0.5;exitY=1;exitDx=0;exitDy=0;" parent="1" source="qVSksW2Qw324cHaHS6DK-1" target="4_murhOq8rehyHTH4fiv-2" edge="1">
          <mxGeometry width="50" height="50" relative="1" as="geometry">
            <mxPoint x="356" y="158" as="sourcePoint" />
            <mxPoint x="210" y="310" as="targetPoint" />
          </mxGeometry>
        </mxCell>
        <mxCell id="4_murhOq8rehyHTH4fiv-8" value="" style="endArrow=classic;html=1;rounded=0;exitX=1;exitY=0;exitDx=0;exitDy=0;entryX=0.413;entryY=0.975;entryDx=0;entryDy=0;entryPerimeter=0;" parent="1" source="4_murhOq8rehyHTH4fiv-2" target="qVSksW2Qw324cHaHS6DK-1" edge="1">
          <mxGeometry width="50" height="50" relative="1" as="geometry">
            <mxPoint x="390" y="350" as="sourcePoint" />
            <mxPoint x="440" y="300" as="targetPoint" />
          </mxGeometry>
        </mxCell>
        <mxCell id="4_murhOq8rehyHTH4fiv-9" value="" style="endArrow=classic;html=1;rounded=0;exitX=1;exitY=0;exitDx=0;exitDy=0;" parent="1" source="4_murhOq8rehyHTH4fiv-3" target="qVSksW2Qw324cHaHS6DK-1" edge="1">
          <mxGeometry width="50" height="50" relative="1" as="geometry">
            <mxPoint x="198" y="382" as="sourcePoint" />
            <mxPoint x="367" y="168" as="targetPoint" />
          </mxGeometry>
        </mxCell>
        <mxCell id="4_murhOq8rehyHTH4fiv-10" value="" style="endArrow=classic;html=1;rounded=0;exitX=1;exitY=0;exitDx=0;exitDy=0;entryX=0.013;entryY=0.375;entryDx=0;entryDy=0;entryPerimeter=0;" parent="1" source="4_murhOq8rehyHTH4fiv-1" target="qVSksW2Qw324cHaHS6DK-1" edge="1">
          <mxGeometry width="50" height="50" relative="1" as="geometry">
            <mxPoint x="198" y="282" as="sourcePoint" />
            <mxPoint x="345" y="150" as="targetPoint" />
          </mxGeometry>
        </mxCell>
        <mxCell id="bz7Iw-pxCdeSOx3G55Fh-1" value="" style="endArrow=classic;html=1;rounded=0;exitX=1;exitY=0;exitDx=0;exitDy=0;entryX=0.2;entryY=0.063;entryDx=0;entryDy=0;entryPerimeter=0;" edge="1" parent="1" source="qVSksW2Qw324cHaHS6DK-5" target="qVSksW2Qw324cHaHS6DK-1">
          <mxGeometry width="50" height="50" relative="1" as="geometry">
            <mxPoint x="198" y="382" as="sourcePoint" />
            <mxPoint x="377" y="168" as="targetPoint" />
          </mxGeometry>
        </mxCell>
        <mxCell id="bz7Iw-pxCdeSOx3G55Fh-2" value="" style="endArrow=classic;html=1;rounded=0;entryX=1;entryY=0.5;entryDx=0;entryDy=0;exitX=0;exitY=0.5;exitDx=0;exitDy=0;" edge="1" parent="1" source="qVSksW2Qw324cHaHS6DK-4" target="qVSksW2Qw324cHaHS6DK-1">
          <mxGeometry width="50" height="50" relative="1" as="geometry">
            <mxPoint x="410" y="470" as="sourcePoint" />
            <mxPoint x="460" y="420" as="targetPoint" />
          </mxGeometry>
        </mxCell>
      </root>
    </mxGraphModel>
  </diagram>
</mxfile>
